<svg xmlns="http://www.w3.org/2000/svg" xmlns:svg="http://www.w3.org/2000/svg" xmlns:xlink="http://www.w3.org/1999/xlink" id="svg2" width="668.143" height="668.143" version="1.1"><defs id="defs4"><linearGradient id="linearGradient3068"><stop id="stop3070" offset="0" stop-color="#729fcf" stop-opacity="1"/><stop id="stop3072" offset="1" stop-color="#537497" stop-opacity="1"/></linearGradient><linearGradient id="linearGradient3755"><stop id="stop3757" offset="0" stop-color="#000" stop-opacity=".795"/><stop id="stop3759" offset="1" stop-color="#000" stop-opacity=".737"/></linearGradient><radialGradient id="radialGradient3074" cx="262.756" cy="581.288" r="334.071" fx="262.756" fy="581.288" gradientTransform="matrix(0.4053843,0.87682026,-0.92065367,0.42564425,683.23924,83.475704)" gradientUnits="userSpaceOnUse" xlink:href="#linearGradient3068"/></defs><metadata id="metadata7"/><g id="layer1" transform="translate(76.060883,-215.69246)"><rect id="rect2985" width="668.143" height="668.143" x="-76.061" y="215.692" fill="url(#radialGradient3074)" fill-opacity="1" fill-rule="nonzero" stroke="none" ry="0"/><path id="path3763" fill="#000" fill-opacity="1" fill-rule="nonzero" stroke="none" d="m 716.59528,342.57867 c 0,10.53366 -8.53922,19.07288 -19.07288,19.07288 -10.53366,0 -19.07288,-8.53922 -19.07288,-19.07288 0,-10.53366 8.53922,-19.07287 19.07288,-19.07287 10.53366,0 19.07288,8.53921 19.07288,19.07287 z" transform="matrix(1.5,0,0,1.5,-633.492,-129.05653)"/><path id="path3765" fill="#000" fill-opacity="1" fill-rule="nonzero" stroke="none" d="m 716.59528,342.57867 c 0,10.53366 -8.53922,19.07288 -19.07288,19.07288 -10.53366,0 -19.07288,-8.53922 -19.07288,-19.07288 0,-10.53366 8.53922,-19.07287 19.07288,-19.07287 10.53366,0 19.07288,8.53921 19.07288,19.07287 z" transform="matrix(1.5,0,0,1.5,-956.36857,-134.50592)"/><path id="path3767" fill="none" stroke="#000" stroke-dasharray="none" stroke-linecap="round" stroke-linejoin="miter" stroke-miterlimit="4" stroke-opacity="1" stroke-width="32.817" d="m 47.953148,567.68093 c 8.030404,225.12136 370.945862,236.99758 376.828592,0"/><path id="path3769" fill="#000" fill-opacity="1" fill-rule="nonzero" stroke="none" d="m 716.59528,342.57867 c 0,10.53366 -8.53922,19.07288 -19.07288,19.07288 -10.53366,0 -19.07288,-8.53922 -19.07288,-19.07288 0,-10.53366 8.53922,-19.07287 19.07288,-19.07287 10.53366,0 19.07288,8.53921 19.07288,19.07287 z" transform="matrix(1.5,0,0,1.5,-956.36857,-134.50592)"/></g></svg>