<svg xmlns="http://www.w3.org/2000/svg" xmlns:svg="http://www.w3.org/2000/svg" id="svg3943" width="500" height="500" version="1.1"><metadata id="metadata3948"/><g id="layer1" transform="translate(0,-552.36218)"><g id="text3074" fill="#bebebe" fill-opacity="1" stroke="none" font-family="GLYPHICONS Halflings" font-size="457.363" font-stretch="normal" font-style="normal" font-variant="normal" font-weight="normal" letter-spacing="0" transform="translate(3.2684464,3.0812537)" word-spacing="0" style="line-height:125%;-inkscape-font-specification:GLYPHICONS Halflings"><path id="path3107" d="m 248.09375,592.56684 c -85.03925,0.5662 -168.005776,57.82029 -194.28125,139.46875 -26.385643,77.08818 -4.271285,170.1226 57.75,223.4375 71.5361,63.07071 187.5421,67.93271 263.557,10.01395 3.95802,-2.85952 7.8838,-5.7933 11.78675,-8.63895 C 377.81774,945.3059 368.83514,933.6168 358.9375,922.72309 297.0884,976.75368 193.68644,975.3655 135.09375,917.19184 80.884419,865.56728 69.934907,773.90742 111.8125,711.41059 c 29.69537,-46.78007 84.43826,-75.08219 139.65617,-74.73109 53.16862,-0.7165 108.46344,23.98417 136.25008,70.51234 22.25853,37.07386 26.50542,86.94443 3.7083,124.77807 -9.64067,15.19202 -25.32808,26.35689 -42.9583,30.22193 0.60842,-54.46704 0.079,-108.93761 0.25,-163.40625 -14.60417,0 -29.20833,0 -43.8125,0 -0.0136,6.12718 -0.22329,12.25411 -0.9375,18.34375 -34.82469,-30.45426 -93.46727,-31.77829 -126.40625,2.125 -29.80739,30.16034 -35.96152,76.94244 -26.1875,116.78125 8.48679,33.99359 36.09414,64.61576 71.59375,69.9375 28.67886,5.3986 59.39617,-3.06788 81.625,-21.8125 0.21804,7.92173 0.44017,16.0667 0.0625,23.875 43.8287,1.59441 90.24777,-13.26515 118.40781,-48.15438 32.54632,-42.0112 34.50913,-101.4827 14.93955,-149.43035 -28.26506,-70.16353 -102.58103,-117.55999 -177.90976,-117.86685 -4.00013,-0.0761 -8.00027,-0.0358 -12.0001,-0.0172 z m 0.46875,145.59375 c 29.67588,-0.7063 54.3001,27.8755 52.84375,56.875 2.21437,23.7388 -6.33282,50.74935 -28.0625,62.8125 -25.78795,13.86925 -63.43065,2.25199 -72.875,-26.4375 -10.95333,-27.77994 -6.98703,-63.52517 16.75,-83.4375 9.0684,-6.48008 20.22728,-9.70347 31.34375,-9.8125 z"/></g></g></svg>