<svg xmlns="http://www.w3.org/2000/svg" xmlns:svg="http://www.w3.org/2000/svg" id="svg3943" width="500" height="500" version="1.1"><metadata id="metadata3948"/><g id="layer1" transform="translate(0,-552.36218)"><path id="path3013" fill="#bebebe" fill-opacity="1" stroke="none" stroke-width="86.218" d="m 150.14999,575.37243 c -74.011595,0 -134.441599,60.43001 -134.441599,134.4416 0,74.0116 60.430004,134.4416 134.441599,134.4416 74.0116,0 134.4416,-60.43 134.4416,-134.4416 0,-74.01159 -60.43,-134.4416 -134.4416,-134.4416 z m 0,40.22169 c 52.27435,0 94.21992,41.94556 94.21992,94.21991 0,52.27435 -41.94557,94.21992 -94.21992,94.21992 -52.274346,0 -94.219914,-41.94557 -94.219914,-94.21992 0,-52.27435 41.945568,-94.21991 94.219914,-94.21991 z" baseline-shift="baseline" color="#000" direction="ltr" display="inline" enable-background="accumulate" font-family="Sans" font-size="medium" font-stretch="normal" font-style="normal" font-variant="normal" font-weight="normal" letter-spacing="normal" overflow="visible" text-anchor="start" text-decoration="none" visibility="visible" word-spacing="normal" writing-mode="lr-tb" style="text-indent:0;text-align:start;line-height:normal;text-transform:none;block-progression:tb;marker:none;-inkscape-font-specification:Sans"/><path font-size="medium" style="text-indent:0;text-align:start;line-height:normal;text-transform:none;block-progression:tb;marker:none;-inkscape-font-specification:Sans" id="path3015" fill="#bebebe" fill-opacity="1" fill-rule="nonzero" stroke="none" stroke-width="42.247" d="M 241.71875,778.75 213.25,809.96875 462.3125,1037.0938 490.78125,1005.875 241.71875,778.75 z" baseline-shift="baseline" color="#000" direction="ltr" display="inline" enable-background="accumulate" font-family="Sans" font-stretch="normal" font-style="normal" font-variant="normal" font-weight="normal" letter-spacing="normal" overflow="visible" text-anchor="start" text-decoration="none" visibility="visible" word-spacing="normal" writing-mode="lr-tb"/></g></svg>