<svg xmlns="http://www.w3.org/2000/svg" xmlns:svg="http://www.w3.org/2000/svg" id="svg3943" width="500" height="500" version="1.1"><metadata id="metadata3948"/><g id="layer1" transform="translate(0,-552.36218)"><g id="g4426" fill="#bebebe" fill-opacity="1" transform="matrix(13.37234,0,0,13.37234,-2288.4428,-9389.3752)"><g font-style="normal" style="line-height:125%;-inkscape-font-specification:FontAwesome" id="text4413" fill="#bebebe" fill-opacity="1" stroke="none" font-family="FontAwesome" font-size="40" font-stretch="normal" font-variant="normal" font-weight="normal" letter-spacing="0" transform="translate(0,552.36218)" word-spacing="0"><path id="path4424" fill="#bebebe" fill-opacity="1" d="m 206.97073,219.78845 0,2.85715 c -4e-5,0.3869 -0.14141,0.72172 -0.42411,1.00446 -0.28277,0.28274 -0.61759,0.42411 -1.00446,0.42411 l -31.42858,0 c -0.3869,0 -0.72172,-0.14137 -1.00446,-0.42411 -0.28274,-0.28274 -0.42411,-0.61756 -0.42411,-1.00446 l 0,-2.85715 c 0,-0.3869 0.14137,-0.72172 0.42411,-1.00446 0.28274,-0.28273 0.61756,-0.4241 1.00446,-0.42411 l 31.42858,0 c 0.38687,1e-5 0.72169,0.14138 1.00446,0.42411 0.2827,0.28274 0.42407,0.61756 0.42411,1.00446"/><path id="path4422" fill="#bebebe" fill-opacity="1" d="m 206.97073,208.35988 0,2.85714 c -4e-5,0.38692 -0.14141,0.72174 -0.42411,1.00447 -0.28277,0.28275 -0.61759,0.42412 -1.00446,0.42411 l -31.42858,0 c -0.3869,1e-5 -0.72172,-0.14136 -1.00446,-0.42411 -0.28274,-0.28273 -0.42411,-0.61755 -0.42411,-1.00447 l 0,-2.85714 c 0,-0.38689 0.14137,-0.72171 0.42411,-1.00446 0.28274,-0.28272 0.61756,-0.42409 1.00446,-0.42411 l 31.42858,0 c 0.38687,2e-5 0.72169,0.14139 1.00446,0.42411 0.2827,0.28275 0.42407,0.61757 0.42411,1.00446"/><path id="path4418" fill="#bebebe" fill-opacity="1" d="m 206.97073,196.93131 0,2.85714 c -4e-5,0.38693 -0.14141,0.72175 -0.42411,1.00447 -0.28277,0.28276 -0.61759,0.42413 -1.00446,0.4241 l -31.42858,0 c -0.3869,3e-5 -0.72172,-0.14134 -1.00446,-0.4241 -0.28274,-0.28272 -0.42411,-0.61754 -0.42411,-1.00447 l 0,-2.85714 c 0,-0.38688 0.14137,-0.7217 0.42411,-1.00446 0.28274,-0.28271 0.61756,-0.42408 1.00446,-0.42411 l 31.42858,0 c 0.38687,3e-5 0.72169,0.1414 1.00446,0.42411 0.2827,0.28276 0.42407,0.61758 0.42411,1.00446"/></g></g></g></svg>