<svg xmlns="http://www.w3.org/2000/svg" xmlns:svg="http://www.w3.org/2000/svg" id="svg2" width="64" height="64" version="1.1"><metadata id="metadata7"/><g id="layer1" transform="translate(0,-2040.7244)"><g font-stretch="normal" style="line-height:125%;-inkscape-font-specification:FontAwesome" id="text2985" fill="#bebebe" fill-opacity="1" stroke="none" font-family="FontAwesome" font-size="73.612" font-style="normal" font-variant="normal" font-weight="normal" letter-spacing="0" word-spacing="0"><path id="path3777" d="m 63.999998,2060.8939 c -6.6e-5,1.4515 -0.506698,2.6838 -1.519897,3.697 l -26.741975,26.742 c -1.040688,1.0407 -2.286728,1.561 -3.738126,1.561 -1.478852,0 -2.7112,-0.5203 -3.697047,-1.561 L 1.560977,2064.5909 C 0.52032399,2063.6051 -6.7000407e-7,2062.3727 1.507146e-6,2060.8939 -6.7000407e-7,2059.4425 0.52032399,2058.1965 1.560977,2057.1558 l 3.0397945,-3.0809 c 1.068028,-1.0132 2.3140687,-1.5199 3.7381256,-1.5199 1.4514215,0 2.6837689,0.5067 3.6970469,1.5199 L 32,2074.039 51.964055,2054.0749 c 1.01321,-1.0132 2.245558,-1.5199 3.697048,-1.5199 1.423988,0 2.670029,0.5067 3.738125,1.5199 l 3.080873,3.0809 c 1.013199,1.068 1.519831,2.3141 1.519897,3.7381"/></g></g></svg>