<svg xmlns="http://www.w3.org/2000/svg" xmlns:svg="http://www.w3.org/2000/svg" id="svg3943" width="500" height="500" version="1.1"><metadata id="metadata3948"/><g id="layer1" transform="translate(0,-552.36218)"><g font-stretch="normal" style="line-height:125%;-inkscape-font-specification:FontAwesome" id="text3032" fill="#bebebe" fill-opacity="1" stroke="none" font-family="FontAwesome" font-size="609.023" font-style="normal" font-variant="normal" font-weight="normal" letter-spacing="0" word-spacing="0"><path id="path3895" d="m 487.55969,576.3576 c 3.85122,9.28983 2.26523,17.2198 -4.758,23.78996 l -167.54924,167.54925 0,252.17349 c -3.1e-4,9.516 -4.41844,16.1998 -13.25441,20.0516 -2.94571,1.1328 -5.77784,1.6992 -8.49641,1.6992 -6.11769,0 -11.21553,-2.1524 -15.29354,-6.4572 l -87.00326,-87.0033 c -4.30503,-4.30479 -6.45745,-9.40263 -6.45728,-15.29354 l 0,-165.17025 L 17.198306,600.14756 c -7.0237,-6.57016 -8.6096957,-14.50013 -4.757991,-23.78996 3.851701,-8.83583 10.535539,-13.25396 20.051533,-13.2544 l 435.016302,0 c 9.51552,4.4e-4 16.19936,4.41857 20.05154,13.2544"/></g></g></svg>